# xmcd CD database file
#
# Track frame offsets:
#	150
#	47320
#	85436
#	117724
#	158475
#	190583
#	242659
#	288226
#
# Disc length: 4438 seconds
#
# Revision: 0
# Processed by: cddbd v1.5.2PL0 Copyright (c) Steve Scherf et al.
# Submitted via: CDex 1.51
#
DISCID=60115408
DTITLE=Daniel Kobialka - Beautiful World - Entwinement Of Loves Oneness
DYEAR=2008
DGENRE=New Age
TTITLE0=Beautiful World
TTITLE1=Wish The World Happy
TTITLE2=Over The Sorrow
TTITLE3=As Blue As The Sky
TTITLE4=As Far As We Wish
TTITLE5=Blue Sky In My Heart
TTITLE6=Sweet Feelings
TTITLE7=Last Song
EXTD=YEAR: 2008
EXTT0=
EXTT1=
EXTT2=
EXTT3=
EXTT4=
EXTT5=
EXTT6=
EXTT7=
PLAYORDER=
